:SAMPLES-PER-SECOND 30
:FULLY-SPECIFIED
:DEGREES
100
root  -4.34447 38.5613 16.3574 179.206 34.7876 178.496
RightUpLeg  -13.3577 -10.0008 -7.40636
RightLeg  27.4542 -7.84825 -4.63851
RightFoot  -9.37086 -0.319306 14.767
RightToes  -1.39699e-009 0 -3.6325e-017
Spine  8.76185 0.0808177 -1.11786
Spine1  20.785 0.92803 -1.79296
HEad  -13.465 28.1153 -8.05335
LeftShoulder1  1.58211 -2.43358 -20.1975
LeftArm  13.1297 12.509 -53.445
LeftForeArm  50.2048 -77.6589 -57.3043
LeftHand  -1.93408 -2.92689 26.8205
RightShoulder  0.765535 0.433739 12.4588
RightArm  4.71438 -4.48312 54.4202
RightForeArm  138.281 69.9941 149.074
RightHand  -1.03499 3.74347 -13.3613
LeftUpLeg  -8.25989 -5.67556 9.23846
LeftLeg  29.1967 -5.55797 -3.01537
LeftFoot  -15.4293 -0.518627 -17.0108
LeftToes  3.40148e-010 1.80944e-010 1.01921e-010
101
root  -4.43327 38.6993 16.2834 179.267 34.9287 178.182
RightUpLeg  -12.9739 -9.52371 -7.79588
RightLeg  26.0884 -8.29043 -4.62396
RightFoot  -8.50585 -0.430915 14.977
RightToes  -1.39699e-009 0 -3.6325e-017
Spine  8.16348 -0.175937 -1.73848
Spine1  20.6169 0.422146 -1.37477
HEad  -12.9537 28.8174 -8.06547
LeftShoulder1  1.56892 -2.48319 -19.724
LeftArm  12.7584 11.6005 -55.6326
LeftForeArm  52.6029 -77.9806 -59.9909
LeftHand  -2.08012 -3.20735 27.8649
RightShoulder  0.781462 0.527465 12.3926
RightArm  5.01594 -5.64186 54.9264
RightForeArm  138.253 69.7837 149.403
RightHand  -1.04098 3.77241 -13.3953
LeftUpLeg  -7.66304 -6.16174 8.68332
LeftLeg  28.0981 -4.43539 -2.22555
LeftFoot  -15.8421 -0.551998 -16.3414
LeftToes  3.40148e-010 1.80944e-010 1.01921e-010
102
root  -4.62474 38.8773 16.1633 179.537 34.9886 177.953
RightUpLeg  -12.4579 -9.05455 -8.25428
RightLeg  24.0147 -8.95766 -4.56268
RightFoot  -7.16352 -0.611612 15.3311
RightToes  -1.39699e-009 0 -3.6325e-017
Spine  7.60291 -0.472292 -2.17228
Spine1  20.2446 -0.129855 -0.846176
HEad  -12.454 29.2957 -8.29337
LeftShoulder1  1.53614 -2.49405 -19.0863
LeftArm  13.3757 10.6038 -57.082
LeftForeArm  57.5342 -78.5047 -65.0639
LeftHand  -2.1194 -3.36231 27.8854
RightShoulder  0.793023 0.570714 12.4786
RightArm  5.31836 -7.28864 55.4049
RightForeArm  137.767 69.2709 150.126
RightHand  -1.06287 3.78207 -13.6549
LeftUpLeg  -7.24539 -6.25006 7.95737
LeftLeg  27.2118 -3.00704 -1.33968
LeftFoot  -14.6853 -0.373159 -15.6786
LeftToes  3.40148e-010 1.80944e-010 1.01921e-010
103
root  -4.91258 39.0415 16.0111 179.78 35.096 177.775
RightUpLeg  -11.9184 -8.54996 -8.83069
RightLeg  21.8818 -9.61219 -4.45354
RightFoot  -5.70337 -0.819096 15.7513
RightToes  -1.39699e-009 0 -3.6325e-017
Spine  7.26222 -0.740785 -2.47009
Spine1  19.7883 -0.658729 -0.241569
HEad  -12.0001 29.7102 -8.72269
LeftShoulder1  1.48963 -2.48265 -18.3006
LeftArm  14.2603 9.46454 -57.9799
LeftForeArm  63.3998 -78.9519 -70.3172
LeftHand  -2.04943 -3.4651 26.7016
RightShoulder  0.808497 0.63254 12.5703
RightArm  5.67926 -9.04944 55.6933
RightForeArm  137.252 68.7051 150.89
RightHand  -1.11346 3.82082 -14.2288
LeftUpLeg  -6.7378 -6.36005 6.98551
LeftLeg  26.252 -1.68956 -0.570998
LeftFoot  -12.5926 -0.090775 -15.1111
LeftToes  3.40148e-010 1.80944e-010 1.01921e-010
104
root  -5.26503 39.1769 15.8327 179.926 35.3633 177.616
RightUpLeg  -11.3031 -8.1737 -9.47936
RightLeg  19.6927 -9.90644 -4.22598
RightFoot  -4.27704 -1.01941 15.95
RightToes  -1.39699e-009 0 -3.6325e-017
Spine  7.02707 -0.970187 -2.8005
Spine1  19.3894 -1.14806 0.311566
HEad  -11.6583 30.3006 -9.2253
LeftShoulder1  1.42066 -2.41862 -17.3309
LeftArm  14.8188 8.40301 -58.618
LeftForeArm  69.3964 -79.2872 -75.3237
LeftHand  -1.91795 -3.54684 24.8394
RightShoulder  0.824613 0.736904 12.4562
RightArm  6.21803 -10.6086 55.9509
RightForeArm  136.953 68.3957 151.29
RightHand  -1.16263 3.90326 -14.7147
LeftUpLeg  -5.96667 -6.20648 5.93016
LeftLeg  24.6885 -0.750775 -0.0425682
LeftFoot  -11.298 0.0733069 -14.5291
LeftToes  3.40148e-010 1.80944e-010 1.01921e-010
105
root  -5.66805 39.2724 15.6391 -179.867 35.8091 177.64
RightUpLeg  -10.657 -8.1171 -10.0076
RightLeg  17.3498 -9.71654 -3.87387
RightFoot  -2.95398 -1.20568 16.0656
RightToes  -1.39699e-009 0 -3.6325e-017
Spine  6.77441 -1.15135 -3.10264
Spine1  19.1509 -1.59744 0.831522
HEad  -11.5021 30.9808 -9.76006
LeftShoulder1  1.3607 -2.33016 -16.6115
LeftArm  15.0454 7.3938 -58.7462
LeftForeArm  75.2 -79.5192 -80.5082
LeftHand  -1.79812 -3.57042 23.2899
RightShoulder  0.833196 0.820094 12.2583
RightArm  6.92051 -11.6742 56.0993
RightForeArm  136.818 68.413 151.248
RightHand  -1.17621 3.9523 -14.8068
LeftUpLeg  -5.1817 -5.32217 5.148
LeftLeg  22.8348 -0.354098 0.170446
LeftFoot  -11.6029 0.0386093 -13.7314
LeftToes  3.40148e-010 1.80944e-010 1.01921e-010
